<?xml version="1.0" encoding="iso-8859-1"?>
<!-- Generator: Adobe Illustrator 19.0.0, SVG Export Plug-In . SVG Version: 6.00 Build 0)  -->
<svg version="1.1" id="Capa_1" xmlns="http://www.w3.org/2000/svg" xmlns:xlink="http://www.w3.org/1999/xlink" x="0px" y="0px"
	 viewBox="0 0 480 480" style="enable-background:new 0 0 480 480;" xml:space="preserve">
<g>
	<g>
		<g>
			<path d="M256.856,64.96c-78.977-9.356-150.584,47.083-159.94,126.06c-5.943,50.169,14.839,99.784,54.764,130.74
				c10.144,7.607,16.175,19.497,16.32,32.176V408c0.031,19.895,8.261,38.896,22.752,52.528c13.29,12.559,30.899,19.53,49.184,19.472
				c1.6,0,3.2-0.048,4.8-0.152c38.393-3.159,67.785-35.505,67.264-74.024v-51.912c0.102-12.596,6.064-24.425,16.128-32
				c62.924-48.636,74.507-139.073,25.872-201.997C330.323,89.283,295.309,69.474,256.856,64.96z M243.72,463.88h0.04
				c-15.494,1.098-30.738-4.352-42.024-15.024c-0.296-0.272-0.544-0.576-0.8-0.856h77.672
				C269.291,457.351,256.891,462.995,243.72,463.88z M290,432H189.416c-1.234-2.582-2.264-5.257-3.08-8h106.816
				C292.296,426.739,291.243,429.413,290,432z M295.896,408H184v-8h112C296,400,295.928,407.272,295.896,408z M296,384H184v-8h112
				V384z M367.113,222.999c-4.033,34.131-21.622,65.207-48.809,86.233l0.072-0.008c-14.017,10.593-22.292,27.118-22.376,44.688V360
				H184v-6.064c-0.131-17.619-8.448-34.175-22.504-44.8c-55.856-43.331-66.01-123.737-22.679-179.593
				C163.033,98.327,200.308,80.042,239.816,80c5.079,0.004,10.154,0.292,15.2,0.864C325.22,89.159,375.408,152.795,367.113,222.999z
				"/>
			<path d="M282.848,104.448c-4.095-1.659-8.76,0.316-10.418,4.411c-1.638,4.045,0.267,8.656,4.282,10.365
				c31.899,13.137,54.266,42.417,58.552,76.648c0.526,4.387,4.509,7.518,8.896,6.992c4.387-0.526,7.518-4.509,6.992-8.896
				C346.17,154.003,320.078,119.807,282.848,104.448z"/>
			<path d="M253.24,96.76v0.04c-4.395-0.517-8.815-0.784-13.24-0.8c-4.418,0-8,3.582-8,8s3.582,8,8,8
				c3.82,0.001,7.637,0.22,11.432,0.656c0.303,0.032,0.607,0.048,0.912,0.048c4.418-0.026,7.979-3.629,7.952-8.048
				C260.272,100.621,257.247,97.236,253.24,96.76z"/>
			<path d="M240,48c4.418,0,8-3.582,8-8V8c0-4.418-3.582-8-8-8s-8,3.582-8,8v32C232,44.418,235.582,48,240,48z"/>
			<path d="M145.072,67.576c2.184,3.841,7.068,5.184,10.909,3s5.184-7.068,3-10.909c-0.017-0.031-0.035-0.061-0.053-0.092
				l-16-27.712c-2.234-3.812-7.136-5.09-10.947-2.856c-3.776,2.214-5.072,7.051-2.909,10.856L145.072,67.576z"/>
			<path d="M55.864,118.928l27.712,16c3.841,2.184,8.725,0.841,10.909-3c2.164-3.805,0.867-8.642-2.909-10.856l-27.712-16
				c-3.841-2.184-8.725-0.841-10.909,3C50.792,111.877,52.088,116.714,55.864,118.928z"/>
			<path d="M72,216c0-4.418-3.582-8-8-8H32c-4.418,0-8,3.582-8,8s3.582,8,8,8h32C68.418,224,72,220.418,72,216z"/>
			<path d="M83.669,297.018c-0.031,0.018-0.062,0.036-0.093,0.054l-27.712,16c-3.841,2.183-5.185,7.067-3.002,10.908
				c2.183,3.841,7.067,5.185,10.908,3.002c0.031-0.018,0.062-0.036,0.093-0.054l27.712-16c3.841-2.183,5.185-7.067,3.002-10.908
				C92.394,296.179,87.511,294.835,83.669,297.018z"/>
			<path d="M424.136,313.072l-27.712-16c-3.811-2.235-8.713-0.957-10.948,2.854c-2.235,3.811-0.957,8.713,2.854,10.948
				c0.031,0.018,0.062,0.036,0.093,0.054l27.712,16c3.841,2.183,8.725,0.839,10.908-3.002
				C429.207,320.122,427.911,315.286,424.136,313.072z"/>
			<path d="M448,208h-32c-4.418,0-8,3.582-8,8s3.582,8,8,8h32c4.418,0,8-3.582,8-8S452.418,208,448,208z"/>
			<path d="M392.432,136c1.404,0,2.784-0.37,4-1.072l27.712-16c3.812-2.234,5.09-7.136,2.856-10.947
				c-2.214-3.776-7.051-5.072-10.856-2.909l-27.712,16c-3.826,2.209-5.137,7.102-2.928,10.928
				C386.934,134.475,389.574,136,392.432,136z"/>
			<path d="M324,70.504c3.826,2.209,8.719,0.898,10.928-2.928l16-27.712c2.183-3.841,0.839-8.725-3.002-10.908
				c-3.805-2.163-8.641-0.867-10.854,2.908l-16,27.712C318.863,63.402,320.174,68.295,324,70.504z"/>
		</g>
	</g>
</g>
<g>
</g>
<g>
</g>
<g>
</g>
<g>
</g>
<g>
</g>
<g>
</g>
<g>
</g>
<g>
</g>
<g>
</g>
<g>
</g>
<g>
</g>
<g>
</g>
<g>
</g>
<g>
</g>
<g>
</g>
</svg>
