<svg height="512pt" viewBox="0 0 512.00025 512" width="512pt" xmlns="http://www.w3.org/2000/svg"><path d="m195 302c-8.269531 0-15-6.730469-15-15s6.730469-15 15-15c5.339844 0 10.320312 2.878906 13.003906 7.511719 4.144532 7.167969 13.320313 9.621093 20.492188 5.472656s9.621094-13.324219 5.476562-20.496094c-5.429687-9.382812-14.023437-16.351562-23.972656-19.882812v-17.003907c0-8.285156-6.714844-15-15-15s-15 6.714844-15 15v16.976563c-17.460938 6.195313-30 22.867187-30 42.421875 0 24.8125 20.1875 45 45 45 8.269531 0 15 6.730469 15 15s-6.730469 15-15 15c-5.339844 0-10.320312-2.878906-13.003906-7.511719-4.144532-7.171875-13.320313-9.621093-20.492188-5.472656s-9.621094 13.324219-5.472656 20.496094c5.425781 9.382812 14.023438 16.351562 23.96875 19.882812v16.40625c0 8.28125 6.714844 15 15 15s15-6.71875 15-15v-16.382812c17.460938-6.191407 30-22.863281 30-42.417969 0-24.8125-20.1875-45-45-45zm0 0"/><path d="m507.605469 4.394531c-5.855469-5.859375-15.351563-5.859375-21.210938 0l-27.148437 27.144531c-16.722656-7.964843-37.378906-5.046874-51.207032 8.78125l-13.714843 13.714844c-13.894531 13.894532-16.777344 34.5625-8.800781 51.226563l-24.972657 24.976562c-16.839843-7.601562-38.101562-4.328125-52.078125 9.648438l-11.171875 11.175781c-29.757812-18.417969-64.808593-29.0625-102.300781-29.0625-107.523438 0-195 87.476562-195 195s87.476562 195 195 195 195-87.476562 195-195c0-37.492188-10.644531-72.542969-29.058594-102.300781l11.171875-11.175781c13.503907-13.5 17.597657-34.808594 9.691407-52.117188l24.933593-24.933594c16.457031 7.878906 37.167969 5.261719 51.230469-8.800781l13.710938-13.710937c13.828124-13.828126 16.75-34.484376 8.78125-51.210938l27.144531-27.144531c5.859375-5.855469 5.859375-15.355469 0-21.210938zm-312.605469 477.605469c-90.980469 0-165-74.019531-165-165s74.019531-165 165-165 165 74.019531 165 165-74.019531 165-165 165zm126.804688-313.015625 7.882812-7.882813c6.074219-6.078124 16.664062-6.554687 22.214844-1 5.734375 5.734376 4.960937 16.25-1 22.210938l-7.886719 7.886719c-6.519531-7.601563-13.613281-14.695313-21.210937-21.214844zm128.664062-86.238281-13.714844 13.710937c-5.851562 5.851563-15.363281 5.847657-21.214844 0-5.863281-5.863281-5.863281-15.347656 0-21.210937l13.714844-13.714844c5.847656-5.847656 15.363282-5.847656 21.214844 0 5.859375 5.863281 5.859375 15.351562 0 21.214844zm0 0"/></svg>